<svg width="17" height="16" viewBox="0 0 17 16" fill="currentColor" xmlns="http://www.w3.org/2000/svg">
<path d="M16.4523 1.42787C11.5277 -0.322802 6.17495 -0.467399 1.16302 1.01485C0.963802 1.06253 0.776232 1.14986 0.61151 1.27163C0.446788 1.39339 0.308292 1.54711 0.204291 1.72359C0.10029 1.90007 0.0329167 2.09569 0.00619382 2.29879C-0.020529 2.50188 -0.00605357 2.70828 0.048756 2.90565C0.323068 4.00651 0.723194 5.27134 1.20376 6.41809C1.21201 6.4449 1.2249 6.43201 1.2249 6.4052C1.15529 5.8674 1.56882 5.18832 2.3799 4.94134C6.27775 3.70083 10.4726 3.75637 14.3362 5.09964C14.4787 5.14838 14.6295 5.16809 14.7798 5.15762C14.93 5.14714 15.0767 5.10669 15.211 5.03864C15.3454 4.97059 15.4648 4.87633 15.5621 4.76141C15.6595 4.64649 15.7329 4.51323 15.7779 4.36951C16.2585 2.82264 16.4523 1.77231 16.5003 1.50934C16.5085 1.46035 16.4652 1.44179 16.4523 1.42839V1.42787ZM4.57079 4.83099C3.9804 4.95423 3.16416 5.1481 2.5516 5.35126C1.32699 5.77356 1.38371 7.26371 2.03597 7.73912C2.08393 7.46274 2.3799 7.08685 2.7099 6.96001C3.93244 6.47945 5.24522 6.19224 6.57244 6.07365C5.89801 5.79985 5.24007 5.40746 4.57955 4.83048L4.57079 4.83099ZM14.3197 7.8144C12.5603 6.98775 10.6531 6.52219 8.71074 6.44523C6.76837 6.36827 4.83028 6.68147 3.01102 7.36632C2.42785 7.58649 2.06279 8.29599 2.42785 8.9694C3.0656 10.1224 3.78935 11.2257 4.59296 12.2699C4.47746 11.8698 4.68165 11.1288 5.4654 10.8865C7.63308 10.2203 9.90751 10.5029 11.4193 11.1149C11.8463 11.2866 12.4506 11.1825 12.7893 10.6751C13.3671 9.78514 13.8925 8.86233 14.363 7.91134C14.3842 7.86854 14.363 7.83657 14.3197 7.8144ZM10.8073 13.1563C10.1732 12.8361 9.59324 12.4183 9.08869 11.9183C8.85511 11.6847 8.51119 11.349 8.14871 10.9489C7.32113 10.9489 6.51779 11.0319 5.65876 11.3062C4.86108 11.5558 4.78632 12.4772 5.1354 12.9578C5.72579 13.6936 6.13983 14.0906 6.80035 14.7733C7.15039 15.1166 7.62046 15.31 8.11077 15.3124C8.60109 15.3148 9.07303 15.1261 9.42643 14.7862C9.94205 14.2705 10.2592 13.9266 10.8418 13.2661C10.8764 13.231 10.863 13.1697 10.8068 13.1563H10.8073Z" fill="black"/>
</svg>
